<?xml version="1.0" encoding="utf-8"?>
<!-- Generator: Adobe Illustrator 16.0.0, SVG Export Plug-In . SVG Version: 6.00 Build 0)  -->
<!DOCTYPE svg PUBLIC "-//W3C//DTD SVG 1.1//EN" "http://www.w3.org/Graphics/SVG/1.1/DTD/svg11.dtd">
<svg version="1.1" id="Layer_2" xmlns="http://www.w3.org/2000/svg" xmlns:xlink="http://www.w3.org/1999/xlink" x="0px" y="0px"
	 width="512px" height="512px" viewBox="0 0 512 512" enable-background="new 0 0 512 512" xml:space="preserve">
<g>
	<g>
		<path fill="#961E00" d="M247.747,140.227c-20.34,0-35.907,7.907-46.7,23.716c-10.797,15.812-16.193,38.133-16.193,66.968
			s5.328,50.811,15.984,65.923c10.657,15.116,26.432,22.671,47.327,22.671c23.122,0,39.977-6.196,50.565-18.596
			c10.585-12.396,16.227-33.292,16.925-62.685v-7.731c0-32.038-5.433-55.09-16.298-69.162
			C288.491,147.262,271.286,140.227,247.747,140.227z M456,26H56c-16.568,0-30,13.432-30,30v400c0,16.568,13.432,30,30,30h400
			c16.568,0,30-13.432,30-30V56C486,39.432,472.568,26,456,26z M350.34,447.172h-34.686v-97.997c0-13.928,0.765-25.77,2.299-35.521
			h-2.717c-16.02,23.266-40.117,34.895-72.296,34.895c-29.533,0-52.586-10.375-69.162-31.133
			c-16.579-20.755-24.865-49.73-24.865-86.923c0-37.47,8.358-66.723,25.074-87.758c16.716-21.032,39.978-31.551,69.789-31.551
			c31.343,0,55.44,11.841,72.296,35.521h1.881l5.015-31.342h27.372V447.172z"/>
	</g>
</g>
</svg>
