<?xml version="1.0" encoding="utf-8"?>
<!-- Generator: Adobe Illustrator 16.0.0, SVG Export Plug-In . SVG Version: 6.00 Build 0)  -->
<!DOCTYPE svg PUBLIC "-//W3C//DTD SVG 1.1//EN" "http://www.w3.org/Graphics/SVG/1.1/DTD/svg11.dtd">
<svg version="1.1" id="Layer_2" xmlns="http://www.w3.org/2000/svg" xmlns:xlink="http://www.w3.org/1999/xlink" x="0px" y="0px"
	 width="512px" height="512px" viewBox="0 0 512 512" enable-background="new 0 0 512 512" xml:space="preserve">
<g>
	<g id="XMLID_1_">
		<g>
			<path fill="#FFFFFF" d="M350.34,115.36v331.81H315.65v-98c0-13.92,0.77-25.76,2.3-35.52h-2.71
				c-16.021,23.27-40.12,34.899-72.3,34.899c-29.53,0-52.59-10.38-69.16-31.13c-16.58-20.76-24.87-49.729-24.87-86.93
				c0-37.47,8.36-66.72,25.08-87.76c16.71-21.03,39.97-31.55,69.79-31.55c31.34,0,55.44,11.84,72.291,35.53h1.88l5.02-31.35H350.34z
				 M315.65,238.22v-7.73c0-32.03-5.431-55.09-16.29-69.16c-10.87-14.07-28.07-21.1-51.61-21.1c-20.34,0-35.91,7.9-46.7,23.71
				c-10.8,15.81-16.2,38.14-16.2,66.97c0,28.84,5.33,50.81,15.99,65.92c10.66,15.12,26.43,22.67,47.33,22.67
				c23.12,0,39.97-6.19,50.561-18.59C309.31,288.51,314.96,267.62,315.65,238.22z"/>
			<path fill="#3f5767" d="M486,56v400c0,16.57-13.43,30-30,30H56c-16.57,0-30-13.43-30-30V56c0-16.57,13.43-30,30-30h400
				C472.57,26,486,39.43,486,56z M350.34,447.17V115.36h-27.37l-5.02,31.35h-1.88c-16.851-23.69-40.95-35.53-72.291-35.53
				c-29.82,0-53.08,10.52-69.79,31.55c-16.72,21.04-25.08,50.29-25.08,87.76c0,37.2,8.29,66.17,24.87,86.93
				c16.57,20.75,39.63,31.13,69.16,31.13c32.18,0,56.28-11.63,72.3-34.899h2.71c-1.53,9.76-2.3,21.6-2.3,35.52v98H350.34z"/>
			<path fill="#3f5767" d="M315.65,230.49v7.73c-0.69,29.4-6.341,50.29-16.92,62.69c-10.591,12.399-27.44,18.59-50.561,18.59
				c-20.9,0-36.67-7.55-47.33-22.67c-10.66-15.11-15.99-37.08-15.99-65.92c0-28.83,5.4-51.16,16.2-66.97
				c10.79-15.81,26.36-23.71,46.7-23.71c23.54,0,40.74,7.03,51.61,21.1C310.22,175.4,315.65,198.46,315.65,230.49z"/>
		</g>
		<g>
		</g>
	</g>
</g>
</svg>
